<svg width="10" height="17" viewBox="0 0 10 17" fill="none" xmlns="http://www.w3.org/2000/svg">
    <path fill-rule="evenodd" clip-rule="evenodd" d="M1.722 8.40646C4.022 6.09946 6.27 3.84746 8.466 1.65246C8.58094 1.53162 8.64505 1.37123 8.64505 1.20446C8.64505 1.03768 8.58094 0.877291 8.466 0.756457C8.155 0.410457 7.663 0.440457 7.439 0.676457C5.163 2.95846 2.782 5.34346 0.296 7.83246C0.099 7.99446 0 8.18646 0 8.40646C0 8.62746 0.099 8.82446 0.296 8.99846L7.779 16.3045C7.92254 16.4365 8.11193 16.5073 8.30689 16.5019C8.50185 16.4965 8.68701 16.4153 8.823 16.2755C9.181 15.9165 9.043 15.5625 8.881 15.3945C6.49091 13.0686 4.10525 10.7393 1.722 8.40646Z" fill="black"/>
</svg>
