<svg width="14" height="10" viewBox="0 0 14 10" fill="none" xmlns="http://www.w3.org/2000/svg">
    <path d="M4.77996 7.81737L12.4407 0.267261C12.6215 0.0890869 12.8362 0 13.0848 0C13.3334 0 13.548 0.0890869 13.7288 0.267261C13.9096 0.445434 14 0.657016 14 0.902004C14 1.14699 13.9096 1.35857 13.7288 1.53675L5.41271 9.73274C5.23192 9.91091 5.02101 10 4.77996 10C4.53891 10 4.328 9.91091 4.14721 9.73274L0.260331 5.902C0.0795455 5.72383 -0.00708075 5.51225 0.000451963 5.26726C0.00798468 5.02227 0.102144 4.81069 0.282929 4.63252C0.463714 4.45434 0.678396 4.36526 0.926976 4.36526C1.17556 4.36526 1.39024 4.45434 1.57102 4.63252L4.77996 7.81737Z" fill="#515359"/>
</svg>
