<svg width="12" height="11" viewBox="0 0 12 11" fill="none" xmlns="http://www.w3.org/2000/svg">
    <path d="M0.75 2.375C0.75 1.87772 0.947544 1.40081 1.29917 1.04917C1.65081 0.697544 2.12772 0.5 2.625 0.5H9.375C9.87228 0.5 10.3492 0.697544 10.7008 1.04917C11.0525 1.40081 11.25 1.87772 11.25 2.375V6.125C11.25 6.37123 11.2015 6.61505 11.1073 6.84253C11.013 7.07002 10.8749 7.27672 10.7008 7.45083C10.5267 7.62494 10.32 7.76305 10.0925 7.85727C9.86505 7.9515 9.62123 8 9.375 8H6.516L4.21875 10.01C4.11245 10.1029 3.98164 10.1633 3.84196 10.1838C3.70227 10.2044 3.55962 10.1842 3.43107 10.1259C3.30252 10.0675 3.1935 9.9733 3.11706 9.8546C3.04061 9.7359 2.99997 9.59769 3 9.4565V8H2.625C2.12772 8 1.65081 7.80246 1.29917 7.45083C0.947544 7.09919 0.75 6.62228 0.75 6.125V2.375ZM2.625 1.25C2.32663 1.25 2.04048 1.36853 1.8295 1.5795C1.61853 1.79048 1.5 2.07663 1.5 2.375V6.125C1.5 6.42337 1.61853 6.70952 1.8295 6.9205C2.04048 7.13147 2.32663 7.25 2.625 7.25H3.75V9.4235L6.234 7.25H9.375C9.67337 7.25 9.95952 7.13147 10.1705 6.9205C10.3815 6.70952 10.5 6.42337 10.5 6.125V2.375C10.5 2.07663 10.3815 1.79048 10.1705 1.5795C9.95952 1.36853 9.67337 1.25 9.375 1.25H2.625Z" fill="#949599"/>
</svg>
