<svg width="21" height="18" viewBox="0 0 21 18" fill="none" xmlns="http://www.w3.org/2000/svg">
    <path d="M18.75 0H2.25003C1.8522 0 1.47067 0.158035 1.18937 0.43934C0.908062 0.720644 0.750027 1.10218 0.750027 1.5V16.5C0.748297 16.786 0.829215 17.0665 0.983052 17.3076C1.13689 17.5488 1.3571 17.7404 1.61721 17.8594C1.81543 17.9517 2.03138 17.9997 2.25003 18C2.60216 17.9992 2.9426 17.8736 3.21096 17.6456C3.21544 17.6427 3.21953 17.6392 3.22315 17.6353L6.2344 15H18.75C19.1479 15 19.5294 14.842 19.8107 14.5607C20.092 14.2794 20.25 13.8978 20.25 13.5V1.5C20.25 1.10218 20.092 0.720644 19.8107 0.43934C19.5294 0.158035 19.1479 0 18.75 0ZM18.75 13.5H6.2344C5.88117 13.4998 5.53922 13.6243 5.26878 13.8516L5.25753 13.8619L2.25003 16.5V1.5H18.75V13.5Z" fill="#515359"/>
</svg>
