<svg width="24" height="20" viewBox="0 0 24 20" fill="none" xmlns="http://www.w3.org/2000/svg">
    <path d="M11.7597 3.16931L11.169 3.72499C11.2455 3.80255 11.3373 3.86425 11.4388 3.90639C11.5403 3.94853 11.6494 3.97025 11.7597 3.97025C11.87 3.97025 11.9791 3.94853 12.0806 3.90639C12.1821 3.86425 12.2739 3.80255 12.3504 3.72499L11.7597 3.16931ZM8.94393 16.8711C7.28554 15.5941 5.47291 14.347 4.03439 12.7655C2.62542 11.2138 1.64089 9.40361 1.64089 7.05586H0C0 9.90479 1.21426 12.0784 2.8081 13.8298C4.37242 15.5503 6.36774 16.9288 7.92767 18.1299L8.94502 16.8711H8.94393ZM1.64089 7.05586C1.64089 4.75834 2.97001 2.83056 4.78483 2.01948C6.54823 1.23191 8.91767 1.44029 11.169 3.72499L12.3504 2.6147C9.68123 -0.0963822 6.57886 -0.544132 4.10222 0.561885C1.68027 1.64439 0 4.15778 0 7.05586H1.64089ZM7.92767 18.1299C8.48886 18.5616 9.09051 19.0211 9.69983 19.3695C10.3091 19.7168 11.0049 20 11.7597 20V18.3971C11.4206 18.3971 11.0224 18.2688 10.5279 17.9857C10.0324 17.7035 9.51933 17.3146 8.94393 16.8711L7.92767 18.1299ZM15.5917 18.1299C17.1516 16.9277 19.147 15.5514 20.7113 13.8298C22.3051 12.0773 23.5194 9.90479 23.5194 7.05586H21.8785C21.8785 9.40361 20.894 11.2138 19.485 12.7655C18.0465 14.347 16.2338 15.5941 14.5755 16.8711L15.5917 18.1299ZM23.5194 7.05586C23.5194 4.15778 21.8402 1.64439 19.4172 0.561885C16.9405 -0.544132 13.8403 -0.0963822 11.169 2.61363L12.3504 3.72499C14.6017 1.44136 16.9711 1.23191 18.7346 2.01948C20.5494 2.83056 21.8785 4.75727 21.8785 7.05586H23.5194ZM14.5755 16.8711C14 17.3146 13.487 17.7035 12.9915 17.9857C12.497 18.2678 12.0988 18.3971 11.7597 18.3971V20C12.5145 20 13.2102 19.7168 13.8196 19.3695C14.43 19.0211 15.0305 18.5616 15.5917 18.1299L14.5755 16.8711Z" fill="#949599"/>
</svg>
