<svg width="21" height="21" viewBox="0 0 21 21" fill="none" xmlns="http://www.w3.org/2000/svg">
    <path d="M20.0181 8.48999L11.5075 0.400699L11.4979 0.392128C11.2244 0.139902 10.8671 0 10.4963 0C10.1255 0 9.76814 0.139902 9.49469 0.392128L9.48511 0.400699L0.974483 8.48999C0.823951 8.63114 0.704078 8.80217 0.622419 8.99228C0.540759 9.1824 0.499083 9.38749 0.500015 9.59464V19.5C0.500015 19.8978 0.65693 20.2794 0.936239 20.5607C1.21555 20.842 1.59437 21 1.98938 21H7.09576C7.49076 21 7.86958 20.842 8.14889 20.5607C8.4282 20.2794 8.58512 19.8978 8.58512 19.5V14.3571C8.58512 14.3003 8.60753 14.2458 8.64743 14.2056C8.68733 14.1654 8.74145 14.1429 8.79788 14.1429H12.2021C12.2586 14.1429 12.3127 14.1654 12.3526 14.2056C12.3925 14.2458 12.4149 14.3003 12.4149 14.3571V19.5C12.4149 19.8978 12.5718 20.2794 12.8511 20.5607C13.1304 20.842 13.5093 21 13.9043 21H19.0106C19.4056 21 19.7845 20.842 20.0638 20.5607C20.3431 20.2794 20.5 19.8978 20.5 19.5V9.59464C20.5 9.38694 20.4571 9.18151 20.3742 8.99136C20.2912 8.80121 20.17 8.63048 20.0181 8.48999ZM19.2234 19.5C19.2234 19.5568 19.201 19.6113 19.1611 19.6515C19.1212 19.6917 19.0671 19.7143 19.0106 19.7143H13.9043C13.8478 19.7143 13.7937 19.6917 13.7538 19.6515C13.7139 19.6113 13.6915 19.5568 13.6915 19.5V14.3571C13.6915 13.9593 13.5346 13.5778 13.2553 13.2965C12.976 13.0152 12.5971 12.8571 12.2021 12.8571H8.79788C8.40288 12.8571 8.02405 13.0152 7.74474 13.2965C7.46543 13.5778 7.30852 13.9593 7.30852 14.3571V19.5C7.30852 19.5568 7.2861 19.6113 7.2462 19.6515C7.2063 19.6917 7.15218 19.7143 7.09576 19.7143H1.98938C1.93295 19.7143 1.87883 19.6917 1.83893 19.6515C1.79903 19.6113 1.77661 19.5568 1.77661 19.5V9.59464C1.77655 9.56481 1.78266 9.53531 1.79457 9.508C1.80648 9.48069 1.82391 9.45619 1.84576 9.43606L1.85533 9.42749L10.3596 1.34034C10.3983 1.30628 10.448 1.28751 10.4995 1.28751C10.5509 1.28751 10.6006 1.30628 10.6394 1.34034L19.1447 9.42856L19.1532 9.43713C19.1752 9.45717 19.1929 9.48163 19.205 9.50894C19.2171 9.53625 19.2233 9.5658 19.2234 9.59571V19.5Z" fill="#515359"/>
</svg>
