<svg width="25" height="23" viewBox="0 0 25 23" fill="none" xmlns="http://www.w3.org/2000/svg">
<path d="M12.4756 0.34375C14.6165 0.34375 16.5965 0.76041 18.4158 1.59373C20.2351 2.42705 21.6734 3.56021 22.7306 4.99316C23.7878 6.42607 24.3164 7.98911 24.3164 9.68223C24.3164 11.3753 23.7878 12.9405 22.7306 14.3779C21.6734 15.8153 20.2373 16.9506 18.4224 17.7839C16.6075 18.6172 14.6252 19.0339 12.4756 19.0339C11.7972 19.0339 11.0968 18.9854 10.3744 18.8884C7.23794 21.0665 5.56846 22.1688 5.36582 22.1952C5.2689 22.2305 5.17637 22.2261 5.08828 22.182C5.05303 22.1556 5.02661 22.1203 5.00898 22.0762C4.99136 22.0321 4.98257 21.9924 4.98257 21.9571V21.9042C5.03545 21.5603 5.43628 20.1274 6.18516 17.6054C4.48479 16.7588 3.13464 15.6367 2.13469 14.239C1.13474 12.8414 0.634766 11.3224 0.634766 9.68223C0.634766 7.98911 1.16337 6.42607 2.22059 4.99316C3.27781 3.56021 4.71606 2.42705 6.53535 1.59373C8.35464 0.76041 10.3347 0.34375 12.4756 0.34375Z" fill="black"/>
</svg>
