<svg width="12" height="10" viewBox="0 0 12 10" fill="none" xmlns="http://www.w3.org/2000/svg">
    <path d="M6 1.74999L5.73 2.00999C5.76498 2.04629 5.80692 2.07515 5.85331 2.09487C5.8997 2.11459 5.94959 2.12475 6 2.12475C6.05041 2.12475 6.1003 2.11459 6.14669 2.09487C6.19308 2.07515 6.23502 2.04629 6.27 2.00999L6 1.74999ZM4.713 8.16099C3.955 7.56349 3.1265 6.97999 2.469 6.23999C1.825 5.51399 1.375 4.66699 1.375 3.56849H0.625C0.625 4.90149 1.18 5.91849 1.9085 6.73799C2.6235 7.54299 3.5355 8.18799 4.2485 8.74999L4.7135 8.16099H4.713ZM1.375 3.56849C1.375 2.49349 1.9825 1.59149 2.812 1.21199C3.618 0.843493 4.701 0.940993 5.73 2.00999L6.27 1.49049C5.05 0.221993 3.632 0.0124931 2.5 0.529993C1.393 1.03649 0.625 2.21249 0.625 3.56849H1.375ZM4.2485 8.74999C4.505 8.95199 4.78 9.16699 5.0585 9.32999C5.337 9.49249 5.655 9.62499 6 9.62499V8.87499C5.845 8.87499 5.663 8.81499 5.437 8.68249C5.2105 8.55049 4.976 8.36849 4.713 8.16099L4.2485 8.74999ZM7.7515 8.74999C8.4645 8.18749 9.3765 7.54349 10.0915 6.73799C10.82 5.91799 11.375 4.90149 11.375 3.56849H10.625C10.625 4.66699 10.175 5.51399 9.531 6.23999C8.8735 6.97999 8.045 7.56349 7.287 8.16099L7.7515 8.74999ZM11.375 3.56849C11.375 2.21249 10.6075 1.03649 9.5 0.529993C8.368 0.0124931 6.951 0.221993 5.73 1.48999L6.27 2.00999C7.299 0.941493 8.382 0.843493 9.188 1.21199C10.0175 1.59149 10.625 2.49299 10.625 3.56849H11.375ZM7.287 8.16099C7.024 8.36849 6.7895 8.55049 6.563 8.68249C6.337 8.81449 6.155 8.87499 6 8.87499V9.62499C6.345 9.62499 6.663 9.49249 6.9415 9.32999C7.2205 9.16699 7.495 8.95199 7.7515 8.74999L7.287 8.16099Z" fill="#949599"/>
</svg>
