<svg width="66" height="17" viewBox="0 0 66 17" fill="none" xmlns="http://www.w3.org/2000/svg">
    <g clip-path="url(#clip0_119_328)">
        <path d="M10.6857 2.23494V3.62374H0.224365V2.23494H4.56544V0.665771H6.34457V2.23494H10.6857ZM12.5359 0.936318H14.2973V10.1168H12.5359V0.936318ZM5.45501 9.99057C2.96423 9.99057 0.953809 8.98054 0.953809 7.23101C0.953809 5.46345 2.96423 4.47145 5.45501 4.47145C7.94579 4.47145 9.93842 5.46345 9.93842 7.23101C9.93842 8.98054 7.94579 9.99057 5.45501 9.99057ZM5.45501 5.80614C3.74704 5.80614 2.64398 6.41937 2.64398 7.23101C2.64398 8.04265 3.74704 8.65588 5.45501 8.65588C7.16297 8.65588 8.26603 8.04265 8.26603 7.23101C8.26603 6.41937 7.16297 5.80614 5.45501 5.80614ZM1.41638 16.141V10.9645H14.2973V16.141H1.41638ZM3.15993 12.3894V14.7161H12.5537V12.3894H3.15993ZM30.1657 0.936318H31.8381V16.3394H30.1657V8.81821H27.6926V16.0688H26.0202V1.0265H27.6926V7.14083H30.1657V0.936318ZM19.4197 13.8323H21.3767C22.6755 13.8323 23.992 13.5978 24.9172 13.2371V14.8243C24.0098 15.2211 22.5509 15.4195 21.181 15.4195H17.6939V1.45937H19.4197V13.8323ZM41.7105 16.2853C37.3517 16.2853 34.2382 13.0928 34.2382 8.72803C34.2382 4.36323 37.3517 1.17079 41.7105 1.17079C45.34 1.17079 48.062 3.31712 48.8093 6.07668H46.7811C46.1939 4.25501 44.1835 2.90228 41.7461 2.90228C38.4547 2.90228 36.1063 5.33719 36.1063 8.72803C36.1063 12.1369 38.4547 14.5898 41.7817 14.5898C44.6995 14.5898 46.87 12.6419 47.0835 10.0266H41.4081V8.38534H49.0761V9.03465C49.0761 13.2912 45.8737 16.2853 41.7105 16.2853ZM58.3575 16.2853C54.0342 16.2853 50.8317 13.0928 50.8317 8.72803C50.8317 4.36323 54.0164 1.17079 58.3397 1.17079C62.6629 1.17079 65.8654 4.36323 65.8654 8.72803C65.8654 13.0928 62.6807 16.2853 58.3575 16.2853ZM58.3575 14.5538C61.5955 14.5538 63.9973 12.1189 63.9973 8.72803C63.9973 5.31915 61.5955 2.90228 58.3397 2.90228C55.0839 2.90228 52.6998 5.31915 52.6998 8.72803C52.6998 12.1189 55.1016 14.5538 58.3575 14.5538Z" fill="#3FB5F8"/>
        <path d="M56.1 7.77278C56.4962 7.77278 56.8174 7.44717 56.8174 7.04551C56.8174 6.64385 56.4962 6.31824 56.1 6.31824C55.7038 6.31824 55.3826 6.64385 55.3826 7.04551C55.3826 7.44717 55.7038 7.77278 56.1 7.77278Z" fill="#3FB5F8"/>
        <path d="M60.4044 7.77278C60.8006 7.77278 61.1218 7.44717 61.1218 7.04551C61.1218 6.64385 60.8006 6.31824 60.4044 6.31824C60.0082 6.31824 59.687 6.64385 59.687 7.04551C59.687 7.44717 60.0082 7.77278 60.4044 7.77278Z" fill="#3FB5F8"/>
        <path fill-rule="evenodd" clip-rule="evenodd" d="M61.1217 9.22729H55.3826C55.4104 10.8098 56.6845 12.084 58.2521 12.084C59.8198 12.084 61.0939 10.8098 61.1217 9.22729Z" fill="#3FB5F8"/>
    </g>
    <defs>
        <clipPath id="clip0_119_328">
            <rect width="66" height="16" fill="white" transform="translate(0 0.5)"/>
        </clipPath>
    </defs>
</svg>
