<svg width="15" height="18" viewBox="0 0 15 18" fill="none" xmlns="http://www.w3.org/2000/svg">
    <path d="M6.50001 10.535V0H14.5V2H8.50001V14C8.49981 14.8805 8.20909 15.7363 7.67294 16.4348C7.13679 17.1332 6.38517 17.6352 5.53463 17.863C4.6841 18.0907 3.78218 18.0315 2.96875 17.6944C2.15533 17.3573 1.47584 16.7613 1.03568 15.9987C0.595516 15.2361 0.419269 14.3496 0.53427 13.4767C0.649272 12.6037 1.0491 11.7931 1.67174 11.1705C2.29438 10.5479 3.10504 10.1482 3.97801 10.0333C4.85098 9.9184 5.73747 10.0948 6.50001 10.535ZM4.50001 16C5.03044 16 5.53915 15.7893 5.91422 15.4142C6.28929 15.0391 6.50001 14.5304 6.50001 14C6.50001 13.4696 6.28929 12.9609 5.91422 12.5858C5.53915 12.2107 5.03044 12 4.50001 12C3.96957 12 3.46087 12.2107 3.08579 12.5858C2.71072 12.9609 2.50001 13.4696 2.50001 14C2.50001 14.5304 2.71072 15.0391 3.08579 15.4142C3.46087 15.7893 3.96957 16 4.50001 16Z" fill="#515359"/>
</svg>
