<svg width="19" height="20" viewBox="0 0 19 20" fill="none" xmlns="http://www.w3.org/2000/svg">
    <path d="M9.5 0.5C10.6761 0.49964 11.8213 0.876291 12.7676 1.57467C13.7139 2.27305 14.4114 3.25638 14.7578 4.38032C15.1041 5.50427 15.0811 6.70964 14.692 7.81952C14.3029 8.92939 13.5683 9.88532 12.596 10.547C14.2837 11.166 15.7474 12.2759 16.7989 13.7339C17.8504 15.1919 18.4414 16.9312 18.496 18.728C18.5011 18.8277 18.4862 18.9275 18.4523 19.0214C18.4183 19.1153 18.3659 19.2015 18.2982 19.2749C18.2305 19.3483 18.1488 19.4074 18.0579 19.4488C17.967 19.4902 17.8688 19.513 17.769 19.516C17.6692 19.5189 17.5698 19.5019 17.4766 19.4659C17.3835 19.4299 17.2984 19.3756 17.2265 19.3063C17.1546 19.237 17.0973 19.1541 17.0579 19.0623C17.0185 18.9706 16.9978 18.8719 16.997 18.772C16.9374 16.8235 16.1215 14.9747 14.7222 13.6174C13.3228 12.2602 11.45 11.5011 9.5005 11.5011C7.55105 11.5011 5.67819 12.2602 4.27883 13.6174C2.87946 14.9747 2.06355 16.8235 2.004 18.772C1.99803 18.9709 1.91329 19.1593 1.76842 19.2957C1.62355 19.4322 1.43041 19.5055 1.2315 19.4995C1.03259 19.4935 0.844193 19.4088 0.70776 19.2639C0.571327 19.119 0.498033 18.9259 0.504 18.727C0.558748 16.9304 1.14989 15.1913 2.20136 13.7335C3.25283 12.2757 4.7165 11.1659 6.404 10.547C5.43169 9.88532 4.69708 8.92939 4.308 7.81952C3.91892 6.70964 3.89586 5.50427 4.24221 4.38032C4.58856 3.25638 5.28607 2.27305 6.23236 1.57467C7.17866 0.876291 8.3239 0.49964 9.5 0.5ZM5.5 6C5.5 7.06087 5.92143 8.07828 6.67157 8.82843C7.42172 9.57857 8.43913 10 9.5 10C10.5609 10 11.5783 9.57857 12.3284 8.82843C13.0786 8.07828 13.5 7.06087 13.5 6C13.5 4.93913 13.0786 3.92172 12.3284 3.17157C11.5783 2.42143 10.5609 2 9.5 2C8.43913 2 7.42172 2.42143 6.67157 3.17157C5.92143 3.92172 5.5 4.93913 5.5 6Z" fill="#515359"/>
</svg>
