<svg width="20" height="23" viewBox="0 0 20 23" fill="none" xmlns="http://www.w3.org/2000/svg">
    <path d="M19.6734 18.0534C19.0306 17.4802 18.4677 16.8232 18.0001 16.1C17.4896 15.1017 17.1836 14.0115 17.1001 12.8934V9.60002C17.1045 7.84376 16.4675 6.14633 15.3086 4.82667C14.1498 3.507 12.5489 2.65592 10.8068 2.43335V1.57335C10.8068 1.33731 10.713 1.11093 10.5461 0.944025C10.3792 0.777117 10.1528 0.68335 9.91678 0.68335C9.68074 0.68335 9.45436 0.777117 9.28746 0.944025C9.12055 1.11093 9.02678 1.33731 9.02678 1.57335V2.44668C7.30029 2.6853 5.71876 3.54152 4.57513 4.85675C3.4315 6.17199 2.80327 7.85711 2.80678 9.60002V12.8934C2.72328 14.0115 2.4173 15.1017 1.90678 16.1C1.44737 16.8216 0.893577 17.4785 0.260114 18.0534C0.189002 18.1158 0.132008 18.1927 0.0929256 18.2789C0.0538429 18.3651 0.0335671 18.4587 0.0334473 18.5534V19.46C0.0334473 19.6368 0.103685 19.8064 0.228709 19.9314C0.353734 20.0564 0.523303 20.1267 0.700114 20.1267H19.2334C19.4103 20.1267 19.5798 20.0564 19.7049 19.9314C19.8299 19.8064 19.9001 19.6368 19.9001 19.46V18.5534C19.9 18.4587 19.8797 18.3651 19.8406 18.2789C19.8016 18.1927 19.7446 18.1158 19.6734 18.0534ZM1.42011 18.7934C2.04039 18.1942 2.58651 17.5227 3.04678 16.7934C3.68986 15.5877 4.06507 14.2574 4.14678 12.8934V9.60002C4.12034 8.81871 4.2514 8.04007 4.53214 7.31046C4.81289 6.58086 5.23759 5.91521 5.78095 5.35315C6.3243 4.7911 6.97521 4.34413 7.6949 4.03887C8.41459 3.7336 9.18836 3.57629 9.97011 3.57629C10.7519 3.57629 11.5256 3.7336 12.2453 4.03887C12.965 4.34413 13.6159 4.7911 14.1593 5.35315C14.7026 5.91521 15.1273 6.58086 15.4081 7.31046C15.6888 8.04007 15.8199 8.81871 15.7934 9.60002V12.8934C15.8752 14.2574 16.2504 15.5877 16.8934 16.7934C17.3537 17.5227 17.8998 18.1942 18.5201 18.7934H1.42011Z" fill="black"/>
    <path d="M10 22.3534C10.42 22.3437 10.823 22.1858 11.1378 21.9077C11.4525 21.6295 11.6588 21.249 11.72 20.8334H8.21338C8.27636 21.2602 8.49226 21.6497 8.82091 21.9293C9.14957 22.2089 9.56859 22.3596 10 22.3534Z" fill="black"/>
</svg>
