<svg width="22" height="22" viewBox="0 0 20 19" fill="none" xmlns="http://www.w3.org/2000/svg">
    <path d="M18.7575 3.85323L15.3333 0.411568C15.107 0.186439 14.8008 0.0600586 14.4816 0.0600586C14.1624 0.0600586 13.8562 0.186439 13.63 0.411568L1.49081 12.5332L0.382472 17.3166C0.344238 17.4914 0.345549 17.6726 0.386308 17.8469C0.427068 18.0212 0.506246 18.1842 0.618059 18.3239C0.729872 18.4637 0.871496 18.5767 1.03258 18.6547C1.19367 18.7328 1.37015 18.7738 1.54914 18.7749C1.63254 18.7833 1.71657 18.7833 1.79997 18.7749L6.63581 17.6666L18.7575 5.55657C18.9826 5.3303 19.109 5.02409 19.109 4.7049C19.109 4.38571 18.9826 4.07951 18.7575 3.85323ZM6.05247 16.6166L1.51997 17.5674L2.55247 13.1224L11.635 4.0749L15.135 7.5749L6.05247 16.6166ZM15.9166 6.72907L12.4166 3.22907L14.4466 1.21073L17.8883 4.71073L15.9166 6.72907Z" fill="black"/>
</svg>
