<svg width="8" height="15" viewBox="0 0 8 15" fill="none" xmlns="http://www.w3.org/2000/svg">
    <path d="M0.293031 1.13605C0.10556 1.32358 0.000244141 1.57788 0.000244141 1.84305C0.000244141 2.10821 0.10556 2.36252 0.293031 2.55005L5.24303 7.50005L0.293031 12.45C0.110873 12.6387 0.0100779 12.8913 0.0123563 13.1535C0.0146347 13.4156 0.119804 13.6665 0.305212 13.8519C0.49062 14.0373 0.741432 14.1424 1.00363 14.1447C1.26583 14.147 1.51843 14.0462 1.70703 13.864L7.36403 8.20705C7.5515 8.01952 7.65682 7.76521 7.65682 7.50005C7.65682 7.23488 7.5515 6.98058 7.36403 6.79305L1.70703 1.13605C1.5195 0.948577 1.26519 0.843262 1.00003 0.843262C0.734866 0.843262 0.480558 0.948577 0.293031 1.13605Z" fill="#2C2D30"/>
</svg>
