<svg width="24" height="25" viewBox="0 0 24 25" fill="none" xmlns="http://www.w3.org/2000/svg">
    <g clip-path="url(#clip0_120_437)">
        <path d="M10.8866 3.86667C12.3307 3.86535 13.7428 4.29236 14.9441 5.0937C16.1455 5.89503 17.0822 7.03467 17.6357 8.36846C18.1893 9.70224 18.3348 11.1702 18.0539 12.5867C17.7729 14.0032 17.0782 15.3046 16.0575 16.3262C15.0369 17.3478 13.7362 18.0437 12.3199 18.3259C10.9037 18.6081 9.43555 18.4639 8.10126 17.9116C6.76697 17.3593 5.62647 16.4236 4.82404 15.223C4.02161 14.0224 3.59331 12.6108 3.59331 11.1667C3.60206 9.23444 4.37307 7.38374 5.73875 6.01681C7.10443 4.64988 8.95442 3.87719 10.8866 3.86667ZM10.8866 2.5C9.17254 2.5 7.49693 3.00829 6.0717 3.9606C4.64647 4.9129 3.53564 6.26645 2.87969 7.85008C2.22373 9.4337 2.0521 11.1763 2.3865 12.8575C2.72091 14.5386 3.54633 16.0829 4.75838 17.2949C5.97044 18.507 7.51469 19.3324 9.19586 19.6668C10.877 20.0012 12.6196 19.8296 14.2032 19.1736C15.7869 18.5177 17.1404 17.4068 18.0927 15.9816C19.045 14.5564 19.5533 12.8808 19.5533 11.1667C19.5533 8.86812 18.6402 6.66372 17.0149 5.03841C15.3896 3.41309 13.1852 2.5 10.8866 2.5Z" fill="black"/>
        <path d="M23.3334 22.6932L18.4201 17.7466L17.4734 18.6866L22.3867 23.6332C22.4484 23.6954 22.5218 23.7448 22.6026 23.7786C22.6834 23.8124 22.7701 23.83 22.8577 23.8303C22.9453 23.8306 23.0321 23.8136 23.1131 23.7804C23.1942 23.7472 23.2679 23.6983 23.3301 23.6366C23.3922 23.5749 23.4416 23.5015 23.4754 23.4207C23.5092 23.3399 23.5268 23.2532 23.5271 23.1656C23.5274 23.078 23.5105 22.9912 23.4772 22.9102C23.444 22.8291 23.3951 22.7554 23.3334 22.6932Z" fill="black"/>
    </g>
    <defs>
        <clipPath id="clip0_120_437">
            <rect width="24" height="24" fill="white" transform="translate(0 0.5)"/>
        </clipPath>
    </defs>
</svg>

